Coordinates
version=1
nRows=38
nColumns=12
inDegrees=yes

Units are S.I. units (second, meters, Newtons, ...)
Angles are in degrees

endheader
time	SC_y	SC_z	SC_x	AC_y	AC_z	AC_x	GH_y	GH_z	GH_yy	EL_x	PS_y
       0.0              -33.25           7.31          27.29          50.46         -6.724           5.64          113.0          26.01         -127.5          78.28           27.7
   0.04205              -33.25           7.31          27.29          50.46         -6.725          5.641          113.0          26.01         -127.5          78.29          27.72
   0.08411              -33.25          7.309           27.3          50.46         -6.726          5.643          113.0          26.01         -127.5           78.3          27.73
    0.1262              -33.26          7.308          27.31          50.46         -6.727          5.644          113.0          26.01         -127.5          78.31          27.75
    0.1682              -33.26          7.307          27.31          50.47         -6.728          5.646          113.0          26.01         -127.5          78.32          27.77
    0.2103              -33.26          7.307          27.32          50.47         -6.729          5.648          113.0          26.01         -127.4          78.33          27.79
    0.2523              -33.26          7.306          27.32          50.47         -6.731           5.65          112.9          26.01         -127.4          78.34          27.81
    0.2944              -33.26          7.305          27.33          50.48         -6.732          5.651          112.9          26.01         -127.4          78.35          27.84
    0.3364              -33.26          7.304          27.34          50.48         -6.733          5.654          112.9          26.01         -127.3          78.36          27.86
    0.3785              -33.26          7.303          27.35          50.48         -6.735          5.656          112.9          26.01         -127.3          78.37          27.89
    0.4205              -33.26          7.302          27.36          50.49         -6.736          5.658          112.9          26.01         -127.3          78.39          27.92
    0.4626              -33.27          7.301          27.37          50.49         -6.738          5.661          112.8          26.01         -127.2           78.4          27.95
    0.5046              -33.27          7.299          27.38           50.5          -6.74          5.664          112.8          26.01         -127.2          78.42          27.98
    0.5467              -33.27          7.298          27.39           50.5         -6.742          5.667          112.8          26.02         -127.2          78.44          28.02
    0.5887              -33.27          7.296           27.4          50.51         -6.744           5.67          112.8          26.02         -127.1          78.46          28.05
    0.6308              -33.27          7.295          27.42          50.51         -6.746          5.673          112.7          26.02         -127.1          78.48           28.1
    0.6728              -33.28          7.293          27.43          50.52         -6.749          5.677          112.7          26.02         -127.0           78.5          28.14
    0.7149              -33.28          7.291          27.45          50.53         -6.751          5.682          112.7          26.02         -126.9          78.53          28.19
     0.757              -33.28          7.289          27.46          50.54         -6.754          5.686          112.6          26.02         -126.9          78.56          28.25
     0.799              -33.28          7.286          27.48          50.54         -6.758          5.691          112.6          26.02         -126.8          78.59          28.31
    0.8411              -33.29          7.284           27.5          50.55         -6.761          5.697          112.6          26.02         -126.7          78.62          28.37
    0.8831              -33.29          7.281          27.53          50.56         -6.765          5.703          112.5          26.02         -126.6          78.66          28.44
    0.9252               -33.3          7.278          27.55          50.58         -6.769          5.709          112.4          26.02         -126.5           78.7          28.52
    0.9672               -33.3          7.275          27.58          50.59         -6.774          5.717          112.4          26.02         -126.4          78.74          28.61
     1.009              -33.31          7.271          27.61           50.6          -6.78          5.725          112.3          26.03         -126.3          78.79          28.71
     1.051              -33.31          7.266          27.64          50.62         -6.785          5.734          112.2          26.03         -126.2          78.85          28.82
     1.093              -33.32          7.262          27.68          50.64         -6.792          5.745          112.2          26.03         -126.0          78.91          28.94
     1.135              -33.32          7.256          27.73          50.66           -6.8          5.756          112.1          26.03         -125.8          78.98          29.08
     1.177              -33.33           7.25          27.78          50.68         -6.808          5.769          112.0          26.03         -125.6          79.06          29.23
      1.22              -33.34          7.243          27.83           50.7         -6.818          5.784          111.8          26.04         -125.4          79.15          29.41
     1.262              -33.35          7.235           27.9          50.73         -6.829          5.801          111.7          26.04         -125.2          79.25          29.61
     1.304              -33.37          7.226          27.97          50.77         -6.841          5.821          111.5          26.04         -124.9          79.37          29.84
     1.346              -33.38          7.216          28.06          50.81         -6.856          5.843          111.3          26.05         -124.6          79.51          30.11
     1.388               -33.4          7.204          28.15          50.85         -6.873          5.869          111.1          26.05         -124.2          79.66          30.42
      1.43              -33.41          7.189          28.27           50.9         -6.893            5.9          110.9          26.05         -123.7          79.85          30.78
     1.472              -33.44          7.173          28.41          50.97         -6.916          5.936          110.6          26.06         -123.2          80.07          31.21
     1.514              -33.46          7.153          28.57          51.04         -6.944          5.979          110.2          26.07         -122.6          80.33          31.72
     1.556               -33.5          7.129          28.76          51.13         -6.977           6.03          109.8          26.08         -121.8          80.64          32.33
